<svg width="25" height="24" viewBox="0 0 25 24" fill="none" xmlns="http://www.w3.org/2000/svg">
<path d="M13.528 2C14.653 2.003 15.224 2.009 15.717 2.023L15.911 2.03C16.135 2.038 16.356 2.048 16.623 2.06C17.687 2.11 18.413 2.278 19.05 2.525C19.71 2.779 20.266 3.123 20.822 3.678C21.3305 4.1779 21.724 4.78259 21.975 5.45C22.222 6.087 22.39 6.813 22.44 7.878C22.452 8.144 22.462 8.365 22.47 8.59L22.476 8.784C22.491 9.276 22.497 9.847 22.499 10.972L22.5 11.718V13.028C22.5025 13.7574 22.4948 14.4868 22.477 15.216L22.471 15.41C22.463 15.635 22.453 15.856 22.441 16.122C22.391 17.187 22.221 17.912 21.975 18.55C21.7247 19.2178 21.3312 19.8226 20.822 20.322C20.322 20.8303 19.7173 21.2238 19.05 21.475C18.413 21.722 17.687 21.89 16.623 21.94C16.3857 21.9512 16.1484 21.9612 15.911 21.97L15.717 21.976C15.224 21.99 14.653 21.997 13.528 21.999L12.782 22H11.473C10.7433 22.0025 10.0136 21.9949 9.28403 21.977L9.09003 21.971C8.85264 21.962 8.6153 21.9517 8.37803 21.94C7.31403 21.89 6.58803 21.722 5.95003 21.475C5.2827 21.2244 4.67824 20.8308 4.17903 20.322C3.67007 19.8223 3.27625 19.2176 3.02503 18.55C2.77803 17.913 2.61003 17.187 2.56003 16.122C2.54889 15.8847 2.53889 15.6474 2.53003 15.41L2.52503 15.216C2.5066 14.4868 2.49827 13.7574 2.50003 13.028V10.972C2.49724 10.2426 2.50457 9.5132 2.52203 8.784L2.52903 8.59C2.53703 8.365 2.54703 8.144 2.55903 7.878C2.60903 6.813 2.77703 6.088 3.02403 5.45C3.27514 4.7819 3.66975 4.17702 4.18003 3.678C4.67912 3.16947 5.28317 2.77599 5.95003 2.525C6.58803 2.278 7.31303 2.11 8.37803 2.06C8.64403 2.048 8.86603 2.038 9.09003 2.03L9.28403 2.024C10.0132 2.00623 10.7426 1.99857 11.472 2.001L13.528 2ZM12.5 7C11.1739 7 9.90218 7.52678 8.96449 8.46447C8.02681 9.40215 7.50003 10.6739 7.50003 12C7.50003 13.3261 8.02681 14.5979 8.96449 15.5355C9.90218 16.4732 11.1739 17 12.5 17C13.8261 17 15.0979 16.4732 16.0356 15.5355C16.9732 14.5979 17.5 13.3261 17.5 12C17.5 10.6739 16.9732 9.40215 16.0356 8.46447C15.0979 7.52678 13.8261 7 12.5 7ZM12.5 9C12.894 8.99993 13.2841 9.07747 13.6481 9.22817C14.0121 9.37887 14.3429 9.5998 14.6215 9.87833C14.9001 10.1569 15.1212 10.4875 15.272 10.8515C15.4228 11.2154 15.5005 11.6055 15.5005 11.9995C15.5006 12.3935 15.4231 12.7836 15.2724 13.1476C15.1217 13.5116 14.9007 13.8423 14.6222 14.121C14.3437 14.3996 14.013 14.6206 13.649 14.7714C13.2851 14.9223 12.895 14.9999 12.501 15C11.7054 15 10.9423 14.6839 10.3797 14.1213C9.8171 13.5587 9.50103 12.7956 9.50103 12C9.50103 11.2044 9.8171 10.4413 10.3797 9.87868C10.9423 9.31607 11.7054 9 12.501 9M17.751 5.5C17.4195 5.5 17.1016 5.6317 16.8671 5.86612C16.6327 6.10054 16.501 6.41848 16.501 6.75C16.501 7.08152 16.6327 7.39946 16.8671 7.63388C17.1016 7.8683 17.4195 8 17.751 8C18.0825 8 18.4005 7.8683 18.6349 7.63388C18.8693 7.39946 19.001 7.08152 19.001 6.75C19.001 6.41848 18.8693 6.10054 18.6349 5.86612C18.4005 5.6317 18.0825 5.5 17.751 5.5Z" fill="black"/>
</svg>
