<svg width="21" height="20" viewBox="0 0 21 20" fill="none" xmlns="http://www.w3.org/2000/svg">
<rect x="0.5" width="20" height="20" rx="5" fill="black"/>
<g clip-path="url(#clip0_72_291)">
<path d="M19.2167 4.99992C18.575 5.29159 17.8833 5.48325 17.1667 5.57492C17.9 5.13325 18.4667 4.43325 18.7333 3.59159C18.0417 4.00825 17.275 4.29992 16.4667 4.46659C15.8083 3.74992 14.8833 3.33325 13.8333 3.33325C11.875 3.33325 10.275 4.93325 10.275 6.90825C10.275 7.19159 10.3083 7.46659 10.3667 7.72492C7.39999 7.57492 4.75833 6.14992 2.99999 3.99159C2.69166 4.51659 2.51666 5.13325 2.51666 5.78325C2.51666 7.02492 3.14166 8.12492 4.10833 8.74992C3.51666 8.74992 2.96666 8.58325 2.48333 8.33325V8.35825C2.48333 10.0916 3.71666 11.5416 5.34999 11.8666C4.82569 12.0107 4.27502 12.0307 3.74166 11.9249C3.968 12.6353 4.41127 13.2569 5.00917 13.7024C5.60707 14.1478 6.32953 14.3947 7.07499 14.4083C5.81138 15.4087 4.245 15.9494 2.63333 15.9416C2.34999 15.9416 2.06666 15.9249 1.78333 15.8916C3.36666 16.9083 5.24999 17.4999 7.26666 17.4999C13.8333 17.4999 17.4417 12.0499 17.4417 7.32492C17.4417 7.16659 17.4417 7.01659 17.4333 6.85825C18.1333 6.35825 18.7333 5.72492 19.2167 4.99992Z" fill="white"/>
</g>
<defs>
<clipPath id="clip0_72_291">
<rect width="18" height="15" fill="white" transform="translate(1.5 3)"/>
</clipPath>
</defs>
</svg>
